<svg version="1.0" xmlns="http://www.w3.org/2000/svg" width="237.333" height="237.333" viewBox="0 0 178 178"><path d="M66.5 45.7c0 11.5-.3 21.5-.6 22.3-.6 1.2-2.4 1.6-6.8 1.8-5.7.1-6.1 0-6.2-2.1-.1-1.2-.2-8.3-.3-15.7-.1-15-.1-15-6.7-10.4-4 2.8-12.3 11.2-15.6 15.9-4 5.8-8.8 15.7-9.9 20.7-.1.5-.3 1-.4 1.3-.4.7-.5 1.5-1.4 6.7-.4 2.8-1.2 4.7-1.9 4.5-.8-.1-1.3 2-1.5 6.5-.2 3.8.1 6.9.5 6.9.4.1 33.8.2 74.1.3l73.3.1-.3-7c-.3-6.7-.4-6.9-2.8-6.9-3.2 0-5-1.8-5-4.9 0-5.9-6.1-20.6-11.9-28.7-5.1-7.1-18.5-19-21.3-19-.5 0-.8 6.4-.8 14.2.1 7.9.1 15 .1 15.9-.1 1.3-1.3 1.6-6.8 1.5l-6.8-.1V25H66.4l.1 20.7zM20.6 115.1c.2 1 .6 2.9.9 4.1.2 1.2 1.6 4.5 3 7.4 13.4 27.3 41.5 42.8 71 39.1 9.8-1.3 11.6-1.8 20.9-6.3 18.4-8.7 30.6-23.3 37-44.2l.7-2.2-17.8.1-17.8.1-4.5 5.6c-11.7 14.6-32.6 17.3-47.9 6.1-2.3-1.6-5.6-5-7.3-7.4l-3.2-4.5-17.7.1c-17 .1-17.7.2-17.3 2z"/></svg>