<svg version="1.1" id="Layer_1" xmlns="http://www.w3.org/2000/svg" x="0" y="0" viewBox="0 0 162 162" xml:space="preserve"><style>.brandColorLight{fill-rule:evenodd;clip-rule:evenodd;fill:#0da1ec}.brandColorDark{fill:#09143b}</style><circle class="brandColorLight" cx="80.8" cy="80.8" r="15.9"/><path class="brandColorLight" d="M149.4 24c-4.9-1.8-8.9-5.8-10.7-10.7l-2.8-7.7-13 13 .2 9c1.1 5.9 6.1 10.9 12 12l9.1.2 13-13-7.8-2.8z"/><g><path class="brandColorDark" d="M127 44.6c-.7.5-.8 1.4-.3 2.1 16.8 22.5 14.4 54.3-5.4 74.2-22.2 22.2-58.3 22.2-80.4 0-22.2-22.2-22.2-58.3 0-80.4 20.2-20.2 52.4-22.3 75-4.8.7.5 1.6.4 2.1-.3s.4-1.6-.3-2.1c-23.8-18.4-57.7-16.2-79 5-23.3 23.3-23.3 61.3 0 84.7 11.7 11.7 27 17.5 42.3 17.5 15.3 0 30.7-5.8 42.3-17.5 20.9-20.9 23.3-54.5 5.7-78.1-.4-.7-1.3-.8-2-.3z"/><path class="brandColorDark" d="M102.2 50.8c.5-.7.3-1.6-.4-2.1-15.2-10.1-35.7-8-48.6 4.9-7.3 7.3-11.3 17-11.3 27.3s4 20 11.3 27.3c7.3 7.3 17 11.3 27.3 11.3s20-4 27.3-11.3c12.8-12.8 15-32.4 5.5-47.7-.4-.7-1.4-.9-2.1-.5-.7.4-.9 1.4-.5 2.1 8.8 14.1 6.7 32.2-5.1 44-6.7 6.7-15.7 10.4-25.2 10.4s-18.5-3.7-25.2-10.4S44.9 90.5 44.9 81s3.7-18.5 10.4-25.2c11.9-11.9 30.8-13.8 44.8-4.6.7.5 1.7.3 2.1-.4z"/><path class="brandColorDark" d="M85.2 67c.8.2 1.6-.2 1.9-1 .2-.8-.2-1.6-1-1.9-6.1-1.8-12.7-.1-17.2 4.4-3.3 3.3-5.1 7.6-5.1 12.2s1.8 9 5.1 12.2c3.3 3.3 7.6 5.1 12.2 5.1s9-1.8 12.2-5.1c4.2-4.2 5.9-10.2 4.6-16-.2-.8-1-1.3-1.8-1.1-.8.2-1.3 1-1.1 1.8 1.1 4.8-.4 9.8-3.8 13.2-2.7 2.7-6.3 4.2-10.1 4.2s-7.4-1.5-10.1-4.2c-2.7-2.7-4.2-6.3-4.2-10.1s1.5-7.4 4.2-10.1c3.7-3.7 9.2-5.1 14.2-3.6zM158.8 27c-.1-.5-.6-.9-1.1-1l-8.8-2.1c-.8-.2-1.6.3-1.8 1.1-.2.8.3 1.6 1.1 1.8l6.1 1.4-9.1 9.1-9.8-.4c-.8 0-1.5.6-1.6 1.4 0 .8.6 1.5 1.4 1.6l10.4.4h.1c.4 0 .8-.2 1.1-.4l11.5-11.5c.5-.4.7-.9.5-1.4zM124.7 28.9c.9 0 1.5-.7 1.5-1.6l-.4-9.8 9.1-9.1 1.3 6.2c.2.8 1 1.3 1.8 1.1.8-.2 1.3-1 1.1-1.8L137.2 5c-.1-.5-.5-1-1-1.1-.5-.2-1.1 0-1.5.4L123.2 16c-.3.3-.5.7-.4 1.1l.4 10.4c0 .8.6 1.4 1.5 1.4z"/><path class="brandColorDark" d="M80.6 81.9c.3.3.7.4 1.1.4s.8-.1 1.1-.4l65.5-65.5c.6-.6.6-1.5 0-2.1-.6-.6-1.5-.6-2.1 0L80.6 79.8c-.6.6-.6 1.6 0 2.1z"/></g></svg>