<svg version="1.1" id="Layer_1" xmlns="http://www.w3.org/2000/svg" x="0" y="0" viewBox="0 0 162 162" xml:space="preserve"><style>.brandColorDark{fill:#09143b}</style><path fill-rule="evenodd" clip-rule="evenodd" fill="#0da1ec" d="M65.7 22.5h33.2v7.8h24.4l-14.4 14.4 14.8 14.8H91.2l7.6-7.6-33.1.5z"/><path class="brandColorDark" d="M68.1 72.4c-.1 0-.1 0 0 0V22.5c0-.8-.7-1.5-1.5-1.5s-1.6.6-1.6 1.5v50.8L50.7 92.9s-.1 0-.1.1c-.2.2-.3.3-.3.5l-32.8 45.1c-.5.7-.3 1.6.3 2.1.7.5 1.6.3 2.1-.3l32-44 4.1 4.1c.6.6 1.5.6 2.1 0l5.9-5.9 8 7.9c.3.3.7.4 1.1.4s.8-.1 1.1-.4l2.6-2.6c.6-.6.6-1.5 0-2.1-.6-.6-1.5-.6-2.1 0L73 99.3l-8-7.9c-.6-.6-1.5-.6-2.1 0L57 97.3 53.7 94l13.2-18.1 46.7 64.6c.3.4.8.6 1.2.6.3 0 .6-.1.9-.3.7-.5.8-1.4.3-2.1L68.1 72.4z"/><path class="brandColorDark" d="M142.5 121.6l-35.4-42.5c-.3-.3-.7-.5-1.2-.5s-.9.2-1.2.5L90.8 96c-.5.6-.4 1.6.2 2.1.6.5 1.6.4 2.1-.2l3.3-4 .1.1 4.7 5.4c.3.3.7.5 1.1.5s.8-.2 1.1-.5l5.3-6c.5-.6.5-1.6-.1-2.1s-1.6-.5-2.1.1l-4.1 4.7-3.6-4.1c-.1-.2-.3-.3-.5-.4l7.6-9.3 34.3 41.1c.3.4.7.5 1.2.5.3 0 .7-.1 1-.3.5-.4.6-1.3.1-2zM99.6 53.1l.3-.3c.3-.3.4-.7.4-1.1V41.3c0-.8-.7-1.5-1.5-1.5s-1.5.7-1.5 1.5v9.6H72c-.8 0-1.5.7-1.5 1.5s.7 1.5 1.5 1.5h22.5l-4.2 4.2c-.4.4-.6 1.1-.3 1.6.2.6.8.9 1.4.9H124c.6 0 1.2-.4 1.4-.9.2-.6.1-1.2-.3-1.6l-13.7-13.6 13.4-13.3c.4-.4.6-1.1.3-1.6-.2-.6-.8-.9-1.4-.9h-23v-6.3c0-.8-.7-1.5-1.5-1.5h-27c-.8 0-1.5.7-1.5 1.5s.7 1.5 1.5 1.5h25.5v6.3c0 .8.7 1.5 1.5 1.5h20.9L108 43.5c-.3.3-.4.7-.4 1.1 0 .4.2.8.4 1.1l12.2 12.1H95l4-3.9c.2-.3.5-.5.6-.8z"/></svg>