<svg id="Layer_1" data-name="Layer 1" xmlns="http://www.w3.org/2000/svg" viewBox="0 0 694.27 152.02"><defs><style>.cls-1{fill:#026699;}.cls-2{fill:#f6be17;}</style></defs><title>workire svg</title><path class="cls-1" d="M117.09,335.68c6.31-21.33,12.42-42,18.5-62.61,2.12-7.21,3.67-8.29,11.28-8.44,16.5-.33,14.66,1.41,18.18,13.82,5.32,18.79,10.73,37.56,16.47,57.61.61-2.82.94-4.59,1.38-6.32q7.46-29.39,14.95-58.75c1-3.93,3.56-6,7.46-6.12,6.31-.17,12.63-.05,19.78-.05-10.4,33.14-20.65,65.76-31,98.66-7,0-13.78,0-20.59,0-3.51,0-4.76-2.55-5.6-5.38q-8.86-30-17.7-60c-.33-1.11-.65-2.22-1.15-3.93-3.25,10.82-6.3,21.1-9.43,31.35-3.23,10.62-6.73,21.15-9.73,31.83-1.25,4.46-3.61,6.37-8.13,6.24-5-.15-10,.15-15-.16-1.39-.09-3.52-1.39-3.9-2.58-10-31.58-19.83-63.22-29.68-94.85,0-.14.05-.32.14-.88,7.14,0,14.36-.16,21.57.07,3.87.12,5.73,2.91,6.57,6.45q7.2,30.45,14.42,60.89A33.94,33.94,0,0,0,117.09,335.68Z" transform="translate(-73.2 -220.58)"/><path class="cls-2" d="M264.64,245.44c0,8.95.17,17.42-.07,25.87-.11,4.11,1.23,5.62,5.43,5.37,10-.6,9.42,2.32,9.46-9.75,0-9.83,0-19.66,0-29.49,0-1.78.16-3.56.26-5.58H319.4c.1,1.89.27,3.65.27,5.41,0,11.5.11,23-.05,34.49-.05,3.57.87,5.11,4.76,4.93,11.5-.5,10,1.59,10-10.19,0-6.65,0-13.29,0-19.94,0-.26.36-.52.94-1.29,1.7,1.08,3.55,2.07,5.18,3.33,14.88,11.47,24.11,26.35,27.06,45,.5,3.14.51,3.13,7.84,4.37a74.07,74.07,0,0,1-.15,9.64c-.14,1.05-2,2.54-3.17,2.66-3.63.34-7.32.12-11,.13-42.17,0-80.25-.36-122.41,0-8.51.07-16.13,1.5-15.78-2.37s-.27-6,.46-9.72c.28-1.38,8.13-.76,8.28-4.46a11.19,11.19,0,0,1,.16-2.09c5-20.48,13.9-34.72,30.5-45.76A10.93,10.93,0,0,1,264.64,245.44Z" transform="translate(-73.2 -220.58)"/><path class="cls-1" d="M548.65,363.47c-8.72,0-16.18.07-23.64,0-4.33-.06-7.38-2.1-9.64-5.94-6.34-10.74-13.25-21.14-19.32-32-3.44-6.15-8-7.95-14.91-6.34v44h-26V221h25.66v80.11c5.47,1.29,9.55.7,12.91-4,6.36-9,13.26-17.51,19.67-26.42,2.9-4,6.46-6,11.35-5.91,7,.09,14,0,22.48,0l-34.48,43.14Z" transform="translate(-73.2 -220.58)"/><path class="cls-1" d="M702.86,318c-1.09,19.34,15,31.53,33.73,25.85,4.08-1.25,7.93-3.33,11.81-5.2,6.21-3,8-2.71,12.38,2.59,1.9,2.29,3.71,4.65,6.24,7.84-4.59,3.27-8.68,7-13.43,9.42-14.59,7.4-30,8.3-45.51,3.55-17.92-5.5-30.34-22.64-31.49-42.09-.69-11.6.12-22.84,5.92-33.34,14.82-26.84,56.78-31.61,75.39-8.43,7.69,9.57,10,20.84,9.52,32.75-.22,6-1.57,7-7.82,7C740.8,318,722,318,702.86,318ZM744,302.32c-.12-15.73-10.93-21.1-20.09-20.8-11.81.37-20.09,8.43-20.86,20.8Z" transform="translate(-73.2 -220.58)"/><path class="cls-1" d="M365.69,319.84c-3.69,23.94-28.22,51.13-62.9,52.68-38.62,1.73-65.34-27.59-69.47-52.66h8.8c5.17,0,10.35.29,15.49,0,6.54-.43,11.08.87,15.87,6.73,14.55,17.83,41.58,15.85,54.84-3.17,1.84-2.65,3.69-3.68,6.88-3.62C345.34,320,355.5,319.84,365.69,319.84Z" transform="translate(-73.2 -220.58)"/><path class="cls-1" d="M383,264.82c5.21,0,10.18-.06,15.14,0,4.7.07,7.4,2.25,7.67,7.24a81.7,81.7,0,0,0,1.4,8.62c2.29-3,4.17-5.55,6.17-8,6-7.47,13.76-10.74,23.37-9.22,4.14.65,7.28,1.75,6.11,7.25a72.15,72.15,0,0,0-1.14,12.91c-.12,4-2.07,5.19-5.75,5-3.94-.26-8-.85-11.84-.19-8.77,1.49-15.42,10-15.43,18.8q0,25.49,0,51v5.09H383Z" transform="translate(-73.2 -220.58)"/><path class="cls-1" d="M609.7,264.82c5.28,0,10.24,0,15.2,0,4.28,0,6.82,2.12,7.39,6.47.39,2.93.89,5.85,1.37,8.95,3.58-4.06,6.72-8.11,10.36-11.62,6.07-5.84,13.58-6.42,21.4-4.74,3.1.67,4.76,2.43,4.21,6-.64,4.26-.84,8.6-1.15,12.9s-2,6.42-6.63,5.77c-3.42-.47-7-1-10.36-.45a19.08,19.08,0,0,0-16,19.18q0,27.21-.06,54.43a8,8,0,0,1-.31,1.35H609.7Z" transform="translate(-73.2 -220.58)"/><path class="cls-1" d="M586.2,363.28H560.69V265.12H586.2Z" transform="translate(-73.2 -220.58)"/><path class="cls-1" d="M573,252.5c-8.57,0-16-7.46-15.89-15.91s7.52-16,15.92-16c8.63,0,16.55,7.66,16.59,16.06S581.79,252.52,573,252.5Z" transform="translate(-73.2 -220.58)"/></svg>