<svg version="1.1" id="Layer_1" xmlns="http://www.w3.org/2000/svg" x="0" y="0" viewBox="0 0 162 162" xml:space="preserve"><style>.brandColorLight{fill:#0da1ec}.brandColorDark{fill:#09143b}</style><path class="brandColorLight" d="M114.4 53.5h-12.2c-.8 0-1.5.7-1.5 1.5s.7 1.5 1.5 1.5h12.2c.8 0 1.5-.7 1.5-1.5s-.7-1.5-1.5-1.5zM88.5 68.6H78c-.8 0-1.5.7-1.5 1.5s.7 1.5 1.5 1.5h10.5c.8 0 1.5-.7 1.5-1.5s-.7-1.5-1.5-1.5zM88.5 103.6H78c-.8 0-1.5.7-1.5 1.5s.7 1.5 1.5 1.5h10.5c.8 0 1.5-.7 1.5-1.5s-.7-1.5-1.5-1.5zM126.1 103.6H120c-.8 0-1.5.7-1.5 1.5s.7 1.5 1.5 1.5h6.1c.8 0 1.5-.7 1.5-1.5s-.7-1.5-1.5-1.5zM78 89.6h6.1c.8 0 1.5-.7 1.5-1.5s-.7-1.5-1.5-1.5H78c-.8 0-1.5.7-1.5 1.5s.7 1.5 1.5 1.5zM111.7 77.6H103c-.8 0-1.5.7-1.5 1.5s.7 1.5 1.5 1.5h8.7c.8 0 1.5-.7 1.5-1.5s-.6-1.5-1.5-1.5z"/><g><path class="brandColorDark" d="M155.4 116.9H88.9c-.8 0-1.5.7-1.5 1.5v10.1c0 4.6-3.8 8.4-8.6 8.6-4.7-.1-8.6-4-8.6-8.7V51.9c0-3.5-1.5-6.6-3.9-8.7h58.5c4.9 0 8.8 3.9 8.8 8.7v58.8c0 .8.7 1.5 1.5 1.5s1.5-.7 1.5-1.5V51.9c0-6.5-5.3-11.7-11.8-11.7H58.2c-6.2.3-11.1 5.4-11.1 11.5v14.4c0 4.7-3.9 8.6-8.7 8.6h-.5c-4.9 0-8.8-3.9-8.8-8.8V33.7c0-3.5-1.5-6.6-3.9-8.8h58.6c4.9 0 8.8 3.9 8.8 8.8v.5c.1.8.9 1.4 1.7 1.3.8-.1 1.4-.9 1.3-1.7v-.2c-.1-6.4-5.3-11.7-11.8-11.7H17.2c-6.4 0-11.6 5.5-11.6 12.2v8c0 .8.7 1.5 1.5 1.5h13.1c.8 0 1.5-.7 1.5-1.5s-.7-1.5-1.5-1.5H8.6v-6.5c0-5.1 3.8-9.2 8.6-9.2 4.9 0 8.8 3.9 8.8 8.8V66c0 6.5 5.3 11.8 11.8 11.8h23.5c.8 0 1.5-.7 1.5-1.5s-.7-1.5-1.5-1.5H46.2c2.4-2.1 3.9-5.2 3.9-8.6V51.7c0-4.7 3.8-8.5 8.6-8.5 4.8.1 8.7 4 8.7 8.7v76.5c0 6.2 4.9 11.2 11 11.7H145c6.5 0 11.8-5.2 11.8-11.6v-10.1c.1-.8-.6-1.5-1.4-1.5zm-1.5 11.6c0 4.7-4 8.6-8.8 8.6H86.5c2.4-2.1 3.9-5.2 3.9-8.6v-8.6h63.4v8.6z"/><path class="brandColorDark" d="M94.6 53.6H78c-.8 0-1.5.7-1.5 1.5s.7 1.5 1.5 1.5h16.6c.8 0 1.5-.7 1.5-1.5s-.7-1.5-1.5-1.5zM93.5 70.1c0 .8.7 1.5 1.5 1.5h18.3c.8 0 1.5-.7 1.5-1.5s-.7-1.5-1.5-1.5H95c-.8 0-1.5.7-1.5 1.5zM95 106.6h18.3c.8 0 1.5-.7 1.5-1.5s-.7-1.5-1.5-1.5H95c-.8 0-1.5.7-1.5 1.5s.7 1.5 1.5 1.5zM126.1 71.6c.8 0 1.5-.7 1.5-1.5s-.7-1.5-1.5-1.5H120c-.8 0-1.5.7-1.5 1.5s.7 1.5 1.5 1.5h6.1zM116 89.6h10.5c.8 0 1.5-.7 1.5-1.5s-.7-1.5-1.5-1.5H116c-.8 0-1.5.7-1.5 1.5s.7 1.5 1.5 1.5zM91 89.6h18.3c.8 0 1.5-.7 1.5-1.5s-.7-1.5-1.5-1.5H91c-.8 0-1.5.7-1.5 1.5s.7 1.5 1.5 1.5zM78 80.6h17.5c.8 0 1.5-.7 1.5-1.5s-.7-1.5-1.5-1.5H78c-.8 0-1.5.7-1.5 1.5s.7 1.5 1.5 1.5z"/></g></svg>