<svg viewBox="0 0 663 120" xmlns="http://www.w3.org/2000/svg"><path class="gcst0" d="M653.6 44.1h-39.1L601.2 5.7c-.6-1.9-3.2-1.9-3.8 0l-12.6 39.7h-39.7c-1.9 0-3.2 2.5-1.3 3.8L576 72.5l-12 37.2c-.6 1.9 1.9 3.8 3.2 2.5l31.5-24 32.8 23.3c1.9 1.3 3.8-.6 3.2-2.5l-12-37.8 32.2-23.3c1.9-1.3.6-3.8-1.3-3.8z"/><path d="M112.9 44.1H73.8L60.6 5.7c-.6-1.9-3.2-1.9-3.8 0L44.2 45.4H4.4c-1.9 0-3.2 2.5-1.3 3.8l32.2 23.3-12 37.2c-.6 1.9 1.9 3.8 3.2 2.5l31.5-24 32.8 23.3c1.9 1.3 3.8-.6 3.2-2.5L82 71.2l32.2-23.3c1.9-1.3.6-3.8-1.3-3.8zm135.3 0H209L195.8 5.7c-.6-1.9-3.2-1.9-3.8 0l-12.6 39.7h-39.7c-1.9 0-3.2 2.5-1.3 3.8l32.2 23.3-12 37.2c-.6 1.9 1.9 3.8 3.2 2.5l31.5-24 32.8 23.3c1.9 1.3 3.8-.6 3.2-2.5l-12-37.8 32.2-23.3c1.8-1.3.5-3.8-1.3-3.8zm135.2 0h-39.1L331.1 5.7c-.6-1.9-3.2-1.9-3.8 0l-12.6 39.7H275c-1.9 0-3.2 2.5-1.3 3.8l32.2 23.3-12 37.2c-.6 1.9 1.9 3.8 3.2 2.5l31.5-24 32.8 23.3c1.9 1.3 3.8-.6 3.2-2.5l-12-37.8 32.2-23.3c1.8-1.3.5-3.8-1.4-3.8zm135.1 0h-39.1L466.2 5.7c-.6-1.9-3.2-1.9-3.8 0l-12.6 39.7H410c-1.9 0-3.2 2.5-1.3 3.8l32.2 23.3-12 37.2c-.6 1.9 1.9 3.8 3.2 2.5l31.5-24 32.8 23.3c1.9 1.3 3.8-.6 3.2-2.5l-12-37.8 32.2-23.3c1.9-1.3.6-3.8-1.3-3.8zm80.9-39.9c-.8 0-1.6.5-1.9 1.4l-12.6 39.7h-39.7c-1.9 0-3.2 2.5-1.3 3.8L576 72.5l-12 37.2c-.6 1.9 1.9 3.8 3.2 2.5l31.5-24 .7-84z"/></svg>