<svg viewBox="0 0 503.4 125" xmlns="http://www.w3.org/2000/svg"><path d="M132.1 44.2h50.8v9.5h-20V107h-11V53.7H132l.1-9.5zm48.6 17.3h9.4v8.8h.2c.3-1.3.9-2.4 1.8-3.6.8-1.2 1.8-2.3 3.1-3.2 1.2-1 2.5-1.8 4-2.3 1.4-.6 2.9-.9 4.4-.9 1.2 0 2 .1 2.4.1.4.1.9.2 1.3.2v9.6c-.7-.2-1.4-.3-2.2-.3-.8-.1-1.4-.2-2.2-.2-1.7 0-3.3.3-4.8 1s-2.8 1.7-3.9 2.9c-1.1 1.3-2 2.9-2.7 4.9-.7 1.9-1 4.2-1 6.7v21.6h-10l.2-45.3zm72.7 45.5h-9.9v-6.4h-.2c-1.3 2.3-3.1 4.1-5.5 5.5s-4.9 2.1-7.5 2.1c-5.9 0-10.3-1.4-13-4.4-2.7-2.9-4-7.5-4-13.4V61.5h10v27.9c0 4 .8 6.9 2.3 8.5 1.5 1.7 3.7 2.5 6.4 2.5 2.1 0 3.9-.3 5.3-1s2.6-1.5 3.4-2.6c.9-1.1 1.5-2.4 1.9-3.9s.6-3.2.6-4.9V61.5h10l.2 45.5zm17.1-14.6c.3 2.9 1.4 4.9 3.3 6.2 1.9 1.2 4.3 1.8 6.9 1.8.9 0 2-.1 3.2-.3s2.3-.4 3.3-.8c1.1-.4 1.9-1 2.6-1.8s1-1.8.9-3.1c-.1-1.3-.5-2.3-1.4-3.2-.9-.8-2-1.4-3.3-2-1.3-.5-2.9-.9-4.7-1.3-1.8-.3-3.5-.8-5.4-1.2-1.8-.4-3.7-.9-5.4-1.5-1.8-.6-3.3-1.3-4.7-2.4-1.3-1-2.5-2.3-3.3-3.9s-1.3-3.4-1.3-5.8c0-2.5.6-4.5 1.8-6.2s2.8-3 4.6-4 3.9-1.8 6.2-2.2 4.4-.6 6.4-.6c2.3 0 4.6.3 6.7.8 2.1.5 4.1 1.3 5.8 2.4 1.8 1.1 3.2 2.6 4.3 4.4 1.2 1.8 1.8 3.9 2.2 6.4h-10.5c-.5-2.4-1.6-4-3.3-4.9-1.8-.8-3.7-1.3-5.9-1.3-.7 0-1.6.1-2.5.2-1 .2-1.8.3-2.8.7-.8.3-1.6.8-2.2 1.4-.6.6-.9 1.4-.9 2.4 0 1.3.4 2.2 1.3 2.9.9.7 1.9 1.3 3.3 1.9 1.3.5 2.9.9 4.7 1.3 1.8.3 3.6.8 5.4 1.2s3.6.9 5.4 1.5 3.3 1.3 4.7 2.4c1.3 1 2.5 2.3 3.3 3.8s1.3 3.4 1.3 5.6c0 2.7-.6 4.9-1.8 6.9-1.3 1.8-2.8 3.4-4.8 4.6-1.9 1.2-4.2 2-6.5 2.6-2.4.5-4.8.8-7.1.8-2.8 0-5.5-.3-8-1-2.4-.7-4.6-1.7-6.4-2.9-1.8-1.3-3.2-2.9-4.2-4.9-1-1.9-1.6-4.3-1.7-7l10.5.1zm33-30.9h7.6V47.8h10v13.6h9v7.5h-9v24.3c0 1.1.1 1.9.2 2.8.1.8.3 1.4.6 1.9s.8.9 1.4 1.2c.7.3 1.5.4 2.7.4.7 0 1.4 0 2.1-.1l2.1-.3v7.8c-1.1.2-2.2.3-3.3.3-1.1.2-2.1.2-3.3.2-2.7 0-4.8-.3-6.4-.8-1.6-.5-2.8-1.3-3.8-2.2-.9-1-1.5-2.2-1.8-3.6s-.5-3.2-.6-5V69h-7.6l.1-7.5zm33.8 0h9.5v6.2h.2c1.4-2.7 3.3-4.5 5.9-5.7 2.5-1.2 5.2-1.8 8.2-1.8 3.6 0 6.7.6 9.4 1.9 2.7 1.3 4.9 2.9 6.6 5.2 1.8 2.2 3.1 4.8 3.9 7.7.8 2.9 1.3 6.1 1.3 9.4 0 3.1-.4 6-1.2 8.9-.8 2.8-2 5.4-3.6 7.6-1.6 2.2-3.6 3.9-6.1 5.3-2.5 1.3-5.4 2-8.7 2-1.4 0-2.9-.2-4.4-.4-1.4-.3-2.8-.7-4.2-1.3s-2.6-1.3-3.7-2.3c-1.2-.9-2.1-2-2.8-3.2h-.2v22.7h-10l-.1-62.2zm35 22.8c0-2-.3-4-.8-5.9s-1.3-3.6-2.4-5.1c-1.1-1.5-2.4-2.7-3.9-3.6-1.6-.9-3.4-1.3-5.4-1.3-4.2 0-7.4 1.4-9.5 4.4-2.1 2.9-3.2 6.9-3.2 11.7 0 2.3.3 4.4.8 6.4.6 1.9 1.3 3.6 2.5 5 1.1 1.4 2.4 2.5 4 3.3 1.6.8 3.3 1.3 5.4 1.3 2.3 0 4.2-.5 5.8-1.4 1.6-.9 2.8-2.2 3.9-3.6 1-1.5 1.8-3.2 2.2-5.1.4-2.2.6-4.1.6-6.1zM390 44.2h10v9.5h-10v-9.5zm0 17.3h10V107h-10V61.5zm19-17.3h10V107h-10V44.2zm40.7 64c-3.6 0-6.9-.6-9.7-1.8s-5.2-2.8-7.2-4.9c-1.9-2.1-3.4-4.7-4.4-7.6s-1.6-6.2-1.6-9.6.5-6.6 1.6-9.5c1-2.9 2.5-5.4 4.4-7.6 1.9-2.1 4.4-3.8 7.2-4.9 2.8-1.2 6.1-1.8 9.7-1.8s6.9.6 9.7 1.8 5.2 2.8 7.2 4.9c1.9 2.1 3.4 4.7 4.4 7.6s1.6 6.1 1.6 9.5c0 3.5-.5 6.7-1.6 9.6s-2.5 5.4-4.4 7.6c-1.9 2.1-4.4 3.8-7.2 4.9s-6 1.8-9.7 1.8zm0-7.9c2.2 0 4.2-.5 5.8-1.4 1.7-.9 2.9-2.2 4-3.7s1.8-3.3 2.3-5.1c.5-1.9.8-3.9.8-5.9 0-1.9-.3-3.9-.8-5.8s-1.3-3.6-2.3-5.1c-1.1-1.5-2.4-2.7-4-3.6-1.7-.9-3.6-1.4-5.8-1.4s-4.2.5-5.8 1.4c-1.7.9-2.9 2.2-4 3.6-1.1 1.5-1.8 3.2-2.3 5.1s-.8 3.9-.8 5.8c0 2 .3 3.9.8 5.9s1.3 3.6 2.3 5.1c1.1 1.5 2.4 2.8 4 3.7 1.7 1 3.6 1.4 5.8 1.4zm26-38.8h7.6V47.8h10v13.6h9v7.5h-9v24.3c0 1.1.1 1.9.2 2.8.1.8.3 1.4.6 1.9s.8.9 1.4 1.2c.7.3 1.5.4 2.7.4.7 0 1.4 0 2.1-.1l2.1-.3v7.8c-1.1.2-2.2.3-3.3.3-1.1.2-2.1.2-3.3.2-2.7 0-4.8-.3-6.4-.8-1.6-.5-2.8-1.3-3.8-2.2-.9-1-1.5-2.2-1.8-3.6s-.5-3.2-.6-5V69h-7.5v-7.5z"/><path class="fvst0" d="M120.3 44.2h-46L60.2.5 46 44.2l-46-.1 37.2 27L23 114.8l37.2-27 37.2 27-14.1-43.7 37-26.9z"/><path class="fvst1" d="M86.3 81l-3.2-9.9-22.9 16.7L86.3 81z"/></svg>